# xmcd CD database file
#
# Track frame offsets:
#	150
#	14710
#	33325
#	51730
#	69070
#	82262
#	95877
#	111847
#	124970
#	139757
#
# Disc length: 2069 seconds
#
# Revision: 3
# Processed by: cddbd v1.5.2PL0 Copyright (c) Steve Scherf et al.
# Submitted via: CDex 1.51
#
DISCID=9608130a
DTITLE=Shines, Johnny - Last Night's Dream
DYEAR=1993
DGENRE=Blues
TTITLE0=Solid Gold
TTITLE1=From Dark 'Til Dawn
TTITLE2=I Will Be Kind To You
TTITLE3=Last Night's Dream
TTITLE4=Baby Don't You Think I Know
TTITLE5=Pipeline Blues
TTITLE6=I Don't Know
TTITLE7=Black Panther
TTITLE8=I Had A Good Home
TTITLE9=Mean Fisherman
EXTD=Sire/Warner Brothers/Blue Horizon 9-45285-2\n\nJohnny Shines:  vocals, guitar\nWalter "Shakey" Horton:  harmonica\nWillie Dixon:  bass\nClifton James:  drums\nOtis Spann:  paino on "Pipeline Blues"\n\nRecorded at Ter-Mar Studios, Chicago, May, 1968\
EXTD=n\nSubmitted 7/1/97\n[Jmccoy@efn.org] YEAR: 1993
EXTT0=
EXTT1=
EXTT2=
EXTT3=
EXTT4=
EXTT5=
EXTT6=
EXTT7=
EXTT8=
EXTT9=
PLAYORDER=
